<mxfile host="app.diagrams.net" modified="2022-05-07T09:56:39.840Z" agent="5.0 (Macintosh; Intel Mac OS X 10_15_7) AppleWebKit/537.36 (KHTML, like Gecko) Chrome/100.0.4896.127 Safari/537.36" etag="8me20t0WMr1f4GmJtES4" version="17.4.6" type="github">
  <diagram id="kgpKYQtTHZ0yAKxKKP6v" name="Page-1">
    <mxGraphModel dx="1234" dy="692" grid="1" gridSize="10" guides="1" tooltips="1" connect="1" arrows="1" fold="1" page="1" pageScale="1" pageWidth="2339" pageHeight="3300" math="0" shadow="0">
      <root>
        <mxCell id="0" />
        <mxCell id="1" parent="0" />
        <mxCell id="PjLxV3OL0tyoO1XIXCqa-1" value="Presto SQL" style="rounded=0;whiteSpace=wrap;html=1;" vertex="1" parent="1">
          <mxGeometry x="30" y="100" width="90" height="50" as="geometry" />
        </mxCell>
        <mxCell id="PjLxV3OL0tyoO1XIXCqa-2" value="SqlNode(presto)" style="rounded=0;whiteSpace=wrap;html=1;" vertex="1" parent="1">
          <mxGeometry x="170" y="100" width="90" height="50" as="geometry" />
        </mxCell>
        <mxCell id="PjLxV3OL0tyoO1XIXCqa-3" value="RelNode" style="rounded=0;whiteSpace=wrap;html=1;" vertex="1" parent="1">
          <mxGeometry x="310" y="100" width="90" height="50" as="geometry" />
        </mxCell>
        <mxCell id="PjLxV3OL0tyoO1XIXCqa-4" value="SqlNode(spark)" style="rounded=0;whiteSpace=wrap;html=1;" vertex="1" parent="1">
          <mxGeometry x="450" y="100" width="90" height="50" as="geometry" />
        </mxCell>
        <mxCell id="PjLxV3OL0tyoO1XIXCqa-5" value="Spark SQL" style="rounded=0;whiteSpace=wrap;html=1;" vertex="1" parent="1">
          <mxGeometry x="590" y="100" width="90" height="50" as="geometry" />
        </mxCell>
        <mxCell id="PjLxV3OL0tyoO1XIXCqa-6" value="" style="endArrow=classic;html=1;rounded=0;exitX=1;exitY=0.5;exitDx=0;exitDy=0;entryX=0;entryY=0.5;entryDx=0;entryDy=0;" edge="1" parent="1" source="PjLxV3OL0tyoO1XIXCqa-1" target="PjLxV3OL0tyoO1XIXCqa-2">
          <mxGeometry width="50" height="50" relative="1" as="geometry">
            <mxPoint x="60" y="260" as="sourcePoint" />
            <mxPoint x="160" y="125" as="targetPoint" />
          </mxGeometry>
        </mxCell>
        <mxCell id="PjLxV3OL0tyoO1XIXCqa-7" value="" style="endArrow=classic;html=1;rounded=0;exitX=1;exitY=0.5;exitDx=0;exitDy=0;entryX=0;entryY=0.5;entryDx=0;entryDy=0;" edge="1" parent="1">
          <mxGeometry width="50" height="50" relative="1" as="geometry">
            <mxPoint x="260" y="124.5" as="sourcePoint" />
            <mxPoint x="310" y="124.5" as="targetPoint" />
          </mxGeometry>
        </mxCell>
        <mxCell id="PjLxV3OL0tyoO1XIXCqa-8" value="" style="endArrow=classic;html=1;rounded=0;exitX=1;exitY=0.5;exitDx=0;exitDy=0;entryX=0;entryY=0.5;entryDx=0;entryDy=0;" edge="1" parent="1">
          <mxGeometry width="50" height="50" relative="1" as="geometry">
            <mxPoint x="400" y="124" as="sourcePoint" />
            <mxPoint x="450" y="124" as="targetPoint" />
          </mxGeometry>
        </mxCell>
        <mxCell id="PjLxV3OL0tyoO1XIXCqa-9" value="" style="endArrow=classic;html=1;rounded=0;exitX=1;exitY=0.5;exitDx=0;exitDy=0;entryX=0;entryY=0.5;entryDx=0;entryDy=0;" edge="1" parent="1">
          <mxGeometry width="50" height="50" relative="1" as="geometry">
            <mxPoint x="540" y="124.5" as="sourcePoint" />
            <mxPoint x="590" y="124.5" as="targetPoint" />
          </mxGeometry>
        </mxCell>
      </root>
    </mxGraphModel>
  </diagram>
</mxfile>
